<svg xmlns="http://www.w3.org/2000/svg" width="22" height="22" fill="none"><path fill="#fff" d="M18.651 11.56c.084-.218.105-.458.063-.689a1.226 1.226 0 0 0-.3-.61L14.029 5.5a1.099 1.099 0 0 0-.356-.267 1.022 1.022 0 0 0-.847-.008c-.135.06-.258.148-.36.26a1.203 1.203 0 0 0-.24.391 1.28 1.28 0 0 0 .007.92c.058.146.141.277.246.387l2.515 2.731H4.486c-.29 0-.57.125-.775.349a1.244 1.244 0 0 0-.321.841c0 .316.115.619.321.842.206.223.484.349.775.349h10.508l-2.514 2.73c-.104.11-.188.24-.245.386a1.278 1.278 0 0 0 .232 1.312c.103.111.225.2.36.26a1.021 1.021 0 0 0 .847-.008c.134-.063.255-.153.356-.267l4.385-4.762c.101-.11.182-.242.236-.387Z"/></svg>