<svg width="20" height="21" viewBox="0 0 20 21" fill="none" xmlns="http://www.w3.org/2000/svg">
<path d="M12.2194 5.16602C12.2966 5.16531 12.3739 5.18055 12.4469 5.21191C12.5198 5.24326 12.5878 5.29036 12.6461 5.35156C12.7045 5.41295 12.7522 5.4877 12.7848 5.57129C12.8173 5.65485 12.8343 5.74531 12.8336 5.83691C12.8329 5.92845 12.8147 6.01875 12.7809 6.10156C12.747 6.18448 12.6976 6.25815 12.6383 6.31836L12.6324 6.32422L8.98108 10.1621L8.65295 10.5068L8.98108 10.8516L12.6324 14.6885C12.7195 14.7801 12.782 14.8995 12.8073 15.0332C12.8325 15.1668 12.8191 15.3052 12.7701 15.4297C12.7211 15.5541 12.6396 15.6573 12.5397 15.7275C12.4401 15.7975 12.3253 15.833 12.2106 15.833C12.0574 15.8329 11.9049 15.7686 11.7887 15.6465L7.35315 10.9854C7.23636 10.8624 7.16671 10.6907 7.16663 10.5068C7.16663 10.3686 7.2059 10.2369 7.27502 10.1279L7.35315 10.0273L11.7887 5.36621L11.7946 5.36035C11.852 5.2978 11.9202 5.24958 11.9928 5.2168C12.0653 5.18407 12.1421 5.16672 12.2194 5.16602Z" fill="white" stroke="white"/>
</svg>
