<svg aria-hidden="true" style="position:absolute;width:0;height:0;overflow:hidden" xmlns="http://www.w3.org/2000/svg">
  <defs>
<symbol id="icon-nav-btn-left" viewBox="0 0 30 32">
<path fill="#fff" style="fill: var(--color1, #fff); stroke: var(--color1, #fff)" stroke="#fff" stroke-linejoin="miter" stroke-linecap="butt" stroke-miterlimit="4" stroke-width="1.5238" d="M18.62 7.872c0.118-0.001 0.235 0.022 0.347 0.070s0.215 0.12 0.304 0.213c0.089 0.094 0.162 0.207 0.211 0.335s0.075 0.265 0.074 0.405c-0.001 0.139-0.029 0.277-0.080 0.403s-0.127 0.239-0.217 0.33l-0.009 0.009-6.064 6.373 6.064 6.372c0.133 0.14 0.228 0.322 0.267 0.525s0.018 0.414-0.057 0.604c-0.075 0.19-0.199 0.347-0.351 0.454s-0.327 0.161-0.502 0.161c-0.233-0-0.466-0.098-0.643-0.284l-6.759-7.103c-0.178-0.187-0.284-0.449-0.284-0.729 0-0.211 0.060-0.411 0.165-0.577l0.119-0.153 6.768-7.112c0.087-0.095 0.191-0.169 0.302-0.219s0.227-0.076 0.345-0.077z"></path>
</symbol>
<symbol id="icon-nav-btn-right" viewBox="0 0 30 32">
<path stroke-linejoin="miter" stroke-linecap="butt" stroke-miterlimit="4" stroke-width="1.5238" d="M11.855 7.872c0.119 0 0.236 0.027 0.347 0.076 0.11 0.052 0.213 0.125 0.3 0.219l0.009 0.009 6.758 7.102c0.177 0.189 0.287 0.445 0.287 0.726 0 0.002 0 0.004-0 0.006v-0c0 0.28-0.107 0.541-0.286 0.728l-6.758 7.104c-0.159 0.174-0.388 0.283-0.641 0.283-0.188 0-0.362-0.060-0.504-0.161l0.003 0.002c-0.157-0.114-0.278-0.268-0.348-0.447l-0.002-0.007c-0.049-0.119-0.077-0.258-0.077-0.403 0-0.071 0.007-0.141 0.020-0.209l-0.001 0.007c0.039-0.206 0.133-0.385 0.267-0.526l-0 0 6.063-6.371-6.074-6.383c-0.090-0.092-0.163-0.201-0.214-0.322l-0.002-0.007c-0.050-0.121-0.079-0.261-0.079-0.408 0-0.283 0.108-0.541 0.284-0.735l-0.001 0.001c0.084-0.089 0.186-0.161 0.299-0.211l0.006-0.002c0.1-0.044 0.217-0.070 0.34-0.070 0.003 0 0.005 0 0.008 0h-0z"></path>
</symbol>
  </defs>
</svg>
